<?xml version="1.0" standalone="no"?>
<!DOCTYPE svg PUBLIC "-//W3C//DTD SVG 20010904//EN"
 "http://www.w3.org/TR/2001/REC-SVG-20010904/DTD/svg10.dtd">
<svg version="1.0" xmlns="http://www.w3.org/2000/svg"
 width="260.000000pt" height="260.000000pt" viewBox="0 0 260.000000 260.000000"
 preserveAspectRatio="xMidYMid meet">
<metadata>
Created by potrace 1.14, written by Peter Selinger 2001-2017
</metadata>
<g transform="translate(0.000000,260.000000) scale(0.100000,-0.100000)"
fill="#000000" stroke="none">
<path d="M320 1285 l0 -985 281 0 c154 0 279 3 277 8 -40 77 -91 193 -112 249
l-26 73 33 14 c17 7 117 50 221 95 104 45 191 79 194 76 3 -2 22 -51 43 -106
56 -149 116 -233 182 -258 68 -26 161 -4 193 44 24 37 22 133 -5 210 -56 159
-152 237 -497 406 -280 137 -396 211 -489 311 -165 178 -241 501 -170 715 14
42 32 85 40 97 8 11 15 24 15 28 0 5 -40 8 -90 8 l-90 0 0 -985z"/>
<path d="M1680 2265 c0 -3 18 -47 39 -98 60 -141 60 -131 -1 -156 -128 -54
-401 -162 -403 -159 -1 2 -14 39 -29 83 -58 165 -112 235 -184 235 -46 0 -99
-26 -126 -62 -29 -41 -28 -144 3 -225 48 -128 133 -194 458 -353 263 -128 382
-206 498 -324 76 -76 99 -107 138 -186 26 -52 59 -140 73 -195 43 -168 25
-336 -51 -473 -14 -24 -25 -46 -25 -48 0 -2 47 -4 105 -4 l105 0 0 985 0 985
-300 0 c-165 0 -300 -2 -300 -5z"/>
</g>
</svg>
